<svg xmlns="http://www.w3.org/2000/svg" xmlns:xlink="http://www.w3.org/1999/xlink" viewBox="0 0 855 292"><defs><style>.cls-1{fill:#b3b3b3;}.cls-2{fill:#fbb03b;}.cls-3{fill:#f15a24;}.cls-4{fill:#fff;}.cls-5{fill:none;stroke:#42210b;stroke-miterlimit:10;stroke-dasharray:19.2 19.2;}.cls-6{fill:#0071bc;}.cls-7{fill:url(#未命名漸層_18);}.cls-8{fill:url(#未命名漸層_18-2);}.cls-9{fill:url(#未命名漸層_18-3);}.cls-10{fill:url(#未命名漸層_18-4);}.cls-11{fill:url(#未命名漸層_18-5);}</style><linearGradient id="未命名漸層_18" x1="453.43" y1="117.75" x2="454.48" y2="185.3" gradientUnits="userSpaceOnUse"><stop offset="0"/><stop offset="0.52" stop-color="#999"/><stop offset="1"/></linearGradient><linearGradient id="未命名漸層_18-2" x1="511.43" y1="116.75" x2="512.48" y2="184.3" xlink:href="#未命名漸層_18"/><linearGradient id="未命名漸層_18-3" x1="594.43" y1="115.75" x2="595.48" y2="183.3" xlink:href="#未命名漸層_18"/><linearGradient id="未命名漸層_18-4" x1="651.43" y1="116.75" x2="652.48" y2="184.3" xlink:href="#未命名漸層_18"/><linearGradient id="未命名漸層_18-5" x1="710.43" y1="116.75" x2="711.48" y2="184.3" xlink:href="#未命名漸層_18"/></defs><title>carbon emission</title><g id="排放量複製"><rect class="cls-1" x="180" y="71" width="637" height="161" rx="31.18"/><circle class="cls-2" cx="166.5" cy="145.5" r="135"/><path class="cls-3" d="M170,12s55-2,95,41l-50,51L169,84Z"/><circle class="cls-4" cx="167" cy="145" r="110"/><circle class="cls-5" cx="167" cy="145" r="110"/><circle class="cls-6" cx="166.5" cy="144.5" r="96.5"/><path class="cls-4" d="M99.17,119.65,94.78,125a49.31,49.31,0,0,0-6.49-6.27L92.84,114A38.22,38.22,0,0,1,99.17,119.65Zm.83,11a169.18,169.18,0,0,1-5,21.48l-6-3.28a144.61,144.61,0,0,0,5.44-20.14Zm2.83-23.64-4.33,5.44a39.42,39.42,0,0,0-6.27-5.66l4.55-4.78A35.06,35.06,0,0,1,102.83,107.05Zm35.13,7.6H128.8c.17,5.11.39,9.49.72,13.16a88,88,0,0,0,2.56-8.61l5.66,2.17A67,67,0,0,1,131,139.13a28.38,28.38,0,0,0,.73,3.16c.33,1.83.77,2.72,1.27,2.72v-4.55l5.44,1.94c-.44,4.44-1.16,7.16-2.27,8.33A4.36,4.36,0,0,1,133,152c-1.77,0-3.27-1-4.44-2.95a19.64,19.64,0,0,1-1.66-4.32,35.36,35.36,0,0,1-9,7.27L115,146.29a25.46,25.46,0,0,0,6.55-5H115v2.39h-5.44V125.47h13.21V139.9a31.56,31.56,0,0,0,2.44-3.1,14.29,14.29,0,0,1-.22-1.56,184.47,184.47,0,0,1-1.72-20.59H108.49v15.21a60.71,60.71,0,0,1-1.28,12.43,46.49,46.49,0,0,1-3.27,9.88l-5.66-3.28a66.77,66.77,0,0,0,3.22-10.82,77.65,77.65,0,0,0,.88-11.26v-18h20.7c0-2-.11-4.22-.11-6.49h5.66c0,2.27,0,4.44.06,6.49h2.94c-.72-1.11-1.5-2.16-2.33-3.22l4.94-3.5a45.94,45.94,0,0,1,3.27,4.17l-3.27,2.55H138ZM122.14,117v5.6H110V117Zm-4.77,19.09v-5.44H115v5.44Z"/><path class="cls-4" d="M163.1,104.89v5.88h-7.38c-.84,3.55-1.78,6.82-2.83,9.93H163.1v21.65c.27-.78.55-1.5.77-2.28a33.94,33.94,0,0,0,1.17-8.94V119.2H193.9v5.61h-23v6.32c0,.89,0,1.73-.11,2.5.67-1.55,1.28-3.16,1.83-4.88l5.39,1.72a41.84,41.84,0,0,1-3.67,8.88l-4-2.06A48.7,48.7,0,0,1,169,142.9a41.49,41.49,0,0,1-3.77,9l-5-3.72c.55-1,1.11-1.94,1.61-3h-7.44v4.55h-5.88V130.64c-.5.94-1,1.83-1.5,2.66L142.73,129a67.17,67.17,0,0,0,7.1-18.2h-4.94v-5.88Zm-5.89,34.68V126.36h-2.77v13.21Zm13.71-34.91v6.5h4.94v-9.11H182v9.11h5.21v-6.5h6v12.16H164.82V104.66Zm14.49,21.26a78.61,78.61,0,0,1-.56,9.65,22.89,22.89,0,0,0,9.88,11.16l-4.33,5.44a30.83,30.83,0,0,1-6.21-6.38,18.54,18.54,0,0,1-1.56-2.45,8.36,8.36,0,0,1-.83,1.28,27.1,27.1,0,0,1-9.6,7.55l-3.44-5.44a22.26,22.26,0,0,0,7.88-5.94c1.88-2.44,2.88-7.38,2.94-14.87Zm8.49,5a44.79,44.79,0,0,1-2.83,8l-5.22-2.77a47.54,47.54,0,0,0,2.61-6.94Z"/><path class="cls-4" d="M204.72,110.32v-8.27h6.05v8.27h4.16v6.05h-4.16v8.55c1.22-.44,2.38-.89,3.49-1.39l.84,5.22c-1.45.78-2.89,1.55-4.33,2.27v13.32c0,2.94-.45,4.94-1.28,6-1,1.22-2.83,1.83-5.44,1.83a19.15,19.15,0,0,1-4.1-.45l-1.11-6.1a15.13,15.13,0,0,0,4.38.67,1.29,1.29,0,0,0,1.22-.67,11,11,0,0,0,.28-2.78v-9.21c-1.22.5-2.44,1-3.66,1.39l-2.22-6.27c2-.56,4-1.11,5.88-1.72V116.37h-5.44v-6.05Zm25.58-8.27V124a53.57,53.57,0,0,1-2.55,16.81,36.61,36.61,0,0,1-5.88,11.38L216.43,148a33.63,33.63,0,0,0,5.6-10.16c-2.16.78-4.38,1.5-6.71,2.16l-2.17-6.27c3.78-.77,7.27-1.61,10.49-2.61.22-1.33.39-2.66.5-4.1h-7.71v-6.11h7.82v-5.21h-8v-6h8v-7.61Zm9.55,0v7.61h8.43v6h-8.43v5.21h8.43V127h-8.43v6.05h9.32v6h-9.32v13h-6.33V102.05Z"/><polygon class="cls-4" points="117.84 165 137.58 165 137.58 196.46 151 196.46 128.1 223 106 196.46 117.84 195.47 117.84 165"/><path class="cls-4" d="M173,204.92c-4.09,0-7.21-1.27-9.36-3.85-2-2.31-3-5.43-3-9.32a14.12,14.12,0,0,1,3-9.36c2.19-2.62,5.31-3.93,9.32-3.93a10.62,10.62,0,0,1,7,2.23,8.63,8.63,0,0,1,2.87,6.59h-5.22a5.89,5.89,0,0,0-1.42-3.28,4.63,4.63,0,0,0-3.27-1,6.05,6.05,0,0,0-5.43,2.78,10.41,10.41,0,0,0-1.58,6,10.28,10.28,0,0,0,1.54,6,6.13,6.13,0,0,0,5.47,2.69c2.71,0,4.41-1.46,5.1-4.47h5.22C182.48,202,179,204.92,173,204.92Z"/><path class="cls-4" d="M208.79,201.18c-2.35,2.51-5.55,3.74-9.68,3.74s-7.36-1.23-9.67-3.78c-2.23-2.35-3.32-5.47-3.32-9.39a13.65,13.65,0,0,1,3.28-9.52q3.53-3.81,9.71-3.81c4.13,0,7.33,1.31,9.68,3.85a15.12,15.12,0,0,1,0,18.91Zm-3.85-15.56a7,7,0,0,0-5.83-2.66,6.83,6.83,0,0,0-5.82,2.66,9.73,9.73,0,0,0-1.79,6.13,9.37,9.37,0,0,0,1.83,6,6.75,6.75,0,0,0,5.78,2.62,6.87,6.87,0,0,0,5.79-2.62,9.37,9.37,0,0,0,1.83-6A10.14,10.14,0,0,0,204.94,185.62Z"/><path class="cls-4" d="M216,204.33v-2.76c5.86-4.91,8.82-8.26,8.82-10,0-1.38-.89-2.1-2.63-2.1a2.24,2.24,0,0,0-2,.83,4,4,0,0,0-.37,2.28h-3.63c.06-4.06,2.1-6.11,6.06-6.11a7.15,7.15,0,0,1,4.27,1.25,4.45,4.45,0,0,1,1.84,3.74c0,2.34-2.4,5.58-7.17,9.77h7.37v3.11Z"/><rect class="cls-7" x="430" y="118" width="48" height="73" rx="7.7"/><path class="cls-4" d="M452.53,178.54V144a35.9,35.9,0,0,1-7.63,3.74v-9.5a31.88,31.88,0,0,0,10.51-7.34h6v47.65Z"/><rect class="cls-8" x="488" y="117" width="48" height="73" rx="7.7"/><path class="cls-4" d="M495,177.54v-7.48c15.12-13.32,22.75-22.39,22.75-27.14,0-3.75-2.31-5.69-6.77-5.69-2.52,0-4.25.79-5.18,2.23s-1.08,3.38-.94,6.19h-9.36c.15-11,5.4-16.56,15.62-16.56a17.77,17.77,0,0,1,11,3.39,12.29,12.29,0,0,1,4.75,10.15c0,6.33-6.19,15.12-18.5,26.49h19v8.42Z"/><rect class="cls-9" x="571" y="116" width="48" height="73" rx="7.7"/><path class="cls-4" d="M606.2,173.81a20.46,20.46,0,0,1-12.31,3.74q-16.95,0-17.28-16.63H586c.07,3,.72,5.11,1.94,6.41s3.17,1.94,6,1.94a9.39,9.39,0,0,0,5.9-1.8,6.33,6.33,0,0,0,2.67-5.25,5.32,5.32,0,0,0-3-4.9,12.85,12.85,0,0,0-6.12-1.37c-.57,0-1.94.15-4,.44v-8.93a38.74,38.74,0,0,0,4.68.29,9.15,9.15,0,0,0,5.4-1.44,5.23,5.23,0,0,0,2.45-4.54,4.89,4.89,0,0,0-2.45-4.32,11,11,0,0,0-5.32-1.22c-2.81,0-4.76.65-5.84,1.87s-1.58,3-1.8,5.76h-9.14q.33-15.77,16.2-15.77a21.47,21.47,0,0,1,12,3.17A12.08,12.08,0,0,1,611,141.84a11.71,11.71,0,0,1-5.18,9.87,13.54,13.54,0,0,1,.36,22.1Z"/><rect class="cls-10" x="628" y="117" width="48" height="73" rx="7.7"/><path class="cls-4" d="M662.26,167.61v9.86h-8.78v-9.86H632.82v-6l21.74-31.74h7.7v29.8h7.28v7.92Zm-8.78-21.31-9.29,13.39h9.29Z"/><rect class="cls-11" x="687" y="117" width="48" height="73" rx="7.7"/><path class="cls-4" d="M722.56,173.58a16,16,0,0,1-12.24,5c-10.87,0-16.56-5.25-17-15.76h9.07c.29,2.66,1,4.53,2.09,5.68s2.88,1.8,5.4,1.8a7.13,7.13,0,0,0,5.9-2.73,9.6,9.6,0,0,0,2-6.27,8.6,8.6,0,0,0-2-5.9,7.47,7.47,0,0,0-5.68-2.23c-3.89,0-6.34,2.16-7.49,6.41h-8.35L695.63,130h29.16V138H704.06l-.29,8.35a15.92,15.92,0,0,1,7.27-1.73,15.37,15.37,0,0,1,11.59,4.68,18.84,18.84,0,0,1-.07,24.26Z"/><path d="M552.4,188.69l-1.7-2.89a8.81,8.81,0,0,0,3.61-2.9h-3.25v-6.36h6.81V181C557.87,184.2,556.05,186.78,552.4,188.69Z"/><path d="M766.53,189.45l-9-9v9h-6.32V154.31h6.32V171.7l7.23-6.86H774l-12.28,10.95L775,189.45Z"/><path d="M800.5,171.64v10.48a25.19,25.19,0,0,1-.74,7.33,9.4,9.4,0,0,1-4.42,5A13.81,13.81,0,0,1,788.7,196c-6.86,0-10.47-2.65-10.79-7.86h6.16c.32,1.43,1.92,2.18,4.74,2.18a5.69,5.69,0,0,0,3.61-1.23,4.78,4.78,0,0,0,1.75-3.29,10.19,10.19,0,0,1-5.68,1.86,11.41,11.41,0,0,1-8.4-3.09,10.79,10.79,0,0,1-3.19-8.18,12.48,12.48,0,0,1,3-8.77c2-2.24,4.83-3.35,8.5-3.35a8,8,0,0,1,5.9,2.39l.05-1.7h6.54C800.61,168.56,800.5,170.79,800.5,171.64Zm-7.76.11a5.16,5.16,0,0,0-4-1.7,4.74,4.74,0,0,0-4,1.75,6.64,6.64,0,0,0-1.38,4.36,6,6,0,0,0,1.44,4.15,4.91,4.91,0,0,0,4,1.54c3.62,0,5.42-1.91,5.42-5.79A6.55,6.55,0,0,0,792.74,171.75Z"/></g></svg>